<svg version="1.1" id="Layer_1"
	xmlns="http://www.w3.org/2000/svg"
	xmlns:xlink="http://www.w3.org/1999/xlink" x="0px" y="0px" width="6.2px" height="6.5px" viewBox="0 0 6.2 6.5" style="enable-background:new 0 0 6.2 6.5;" xml:space="preserve">
	<path d="M5.4,4.9c0,0.1,0,0.2,0.1,0.3c0.1,0.1,0.2,0.1,0.2,0.1h0.1H6v0.9l-0.2,0H5.6H5.4H5.2c-0.2,0-0.5,0-0.7-0.2
	C4.3,6,4.2,5.8,4.2,5.5C3.9,5.8,3.6,6,3.2,6.1C2.9,6.2,2.5,6.2,2.2,6.2c-0.3,0-0.5,0-0.8-0.1C1.2,6.1,1,6,0.8,5.8
	C0.6,5.7,0.5,5.5,0.3,5.3C0.2,5.1,0.2,4.9,0.2,4.6c0-0.3,0.1-0.6,0.2-0.9c0.1-0.2,0.3-0.4,0.5-0.5C1.1,3.1,1.4,3,1.6,2.9
	c0.3-0.1,0.5-0.1,0.8-0.1c0.2,0,0.4-0.1,0.7-0.1c0.2,0,0.4,0,0.6-0.1c0.1,0,0.3-0.1,0.4-0.2C4.1,2.3,4.2,2.2,4.2,2
	c0-0.1,0-0.3-0.1-0.4C4,1.5,3.9,1.4,3.8,1.4C3.6,1.3,3.5,1.3,3.4,1.2L3,1.2c-0.3,0-0.7,0.1-0.9,0.2C1.8,1.6,1.7,1.8,1.7,2.1H0.4
	c0-0.3,0.1-0.7,0.3-0.9C0.8,0.9,1,0.7,1.3,0.6c0.2-0.2,0.5-0.3,0.8-0.3C2.4,0.2,2.7,0.2,3,0.2c0.3,0,0.6,0,0.9,0.1
	c0.3,0.1,0.5,0.2,0.8,0.3c0.2,0.1,0.4,0.3,0.5,0.6c0.1,0.2,0.2,0.5,0.2,0.8V4.9z M4.1,3.3C3.9,3.4,3.6,3.5,3.4,3.5
	c-0.3,0-0.6,0.1-0.9,0.1c-0.1,0-0.3,0-0.4,0.1C2,3.7,1.9,3.8,1.8,3.9C1.7,3.9,1.6,4,1.6,4.2C1.5,4.3,1.5,4.4,1.5,4.6
	c0,0.1,0,0.3,0.1,0.4C1.7,5,1.8,5.1,1.9,5.2C2,5.2,2.1,5.3,2.3,5.3c0.1,0,0.3,0,0.4,0c0.2,0,0.3,0,0.5-0.1c0.2,0,0.3-0.1,0.5-0.2
	C3.7,5,3.8,4.9,3.9,4.7C4,4.6,4.1,4.4,4.1,4.2L4.1,3.3z"/>
</svg>
