<svg version="1.1" id="Layer_1"
	xmlns="http://www.w3.org/2000/svg"
	xmlns:xlink="http://www.w3.org/1999/xlink" x="0px" y="0px" width="5.9px" height="6.5px" viewBox="0 0 5.9 6.5" style="enable-background:new 0 0 5.9 6.5;" xml:space="preserve">
	<path d="M4.4,2.3c0-0.3-0.2-0.6-0.5-0.8C3.7,1.3,3.3,1.2,3,1.2c-0.2,0-0.4,0-0.5,0.1C2.3,1.4,2.2,1.5,2.1,1.6C1.9,1.8,1.8,2,1.7,2.3
	C1.6,2.6,1.5,3,1.5,3.3c0,0.2,0,0.5,0.1,0.7c0,0.2,0.1,0.4,0.3,0.6C2,4.9,2.2,5,2.3,5.1C2.5,5.2,2.8,5.3,3,5.3
	c0.3,0,0.7-0.1,0.9-0.3C4.2,4.7,4.3,4.4,4.4,4h1.3C5.6,4.7,5.3,5.3,4.8,5.7C4.3,6.1,3.7,6.3,3,6.3c-0.4,0-0.8-0.1-1.2-0.2
	C1.5,5.9,1.2,5.7,0.9,5.5C0.7,5.2,0.5,4.9,0.4,4.5C0.3,4.1,0.2,3.7,0.2,3.3c0-0.4,0.1-0.8,0.2-1.2c0.1-0.3,0.3-0.7,0.5-0.9
	c0.3-0.3,0.6-0.5,0.9-0.7c0.4-0.2,0.8-0.3,1.2-0.3c0.3,0,0.6,0,0.9,0.1c0.3,0.1,0.6,0.2,0.9,0.4c0.2,0.2,0.4,0.4,0.6,0.7
	C5.6,1.7,5.7,2,5.7,2.3L4.4,2.3z"/>
</svg>
