<svg version="1.1" id="Layer_1"
	xmlns="http://www.w3.org/2000/svg"
	xmlns:xlink="http://www.w3.org/1999/xlink" x="0px" y="0px" width="6px" height="6.5px" viewBox="0 0 6 6.5" style="enable-background:new 0 0 6 6.5;" xml:space="preserve">
	<path d="M1.5,3.6c0,0.2,0,0.4,0.1,0.6c0.1,0.2,0.2,0.4,0.3,0.5C2,4.9,2.2,5,2.4,5.1C2.6,5.2,2.8,5.2,3,5.2c0.3,0,0.6-0.1,0.9-0.2
	c0.2-0.2,0.4-0.4,0.5-0.7h1.2C5.5,4.6,5.4,4.9,5.2,5.1C5.1,5.3,4.9,5.5,4.6,5.7C4.4,5.9,4.2,6,3.9,6.1C3.6,6.1,3.3,6.2,3,6.2
	C2.6,6.2,2.2,6.1,1.8,6C1.5,5.8,1.2,5.6,1,5.4C0.8,5.1,0.6,4.8,0.5,4.5C0.4,4.1,0.3,3.7,0.3,3.3c0-0.4,0.1-0.8,0.2-1.1
	C0.6,1.8,0.8,1.5,1,1.2C1.3,1,1.6,0.7,1.9,0.6C2.2,0.4,2.6,0.3,3,0.4c0.4,0,0.8,0.1,1.2,0.3C4.5,0.8,4.8,1,5.1,1.4
	c0.2,0.3,0.4,0.7,0.5,1c0.1,0.4,0.1,0.8,0.1,1.2H1.5z M4.4,2.8c0-0.2-0.1-0.4-0.1-0.6C4.2,2.1,4.1,1.9,4,1.8C3.7,1.5,3.4,1.3,3,1.3
	c-0.2,0-0.4,0-0.6,0.1C2.2,1.5,2.1,1.6,2,1.7C1.8,1.9,1.7,2,1.7,2.2C1.6,2.4,1.5,2.6,1.5,2.8H4.4z"/>
</svg>
