<svg version="1.1" id="Layer_1"
	xmlns="http://www.w3.org/2000/svg"
	xmlns:xlink="http://www.w3.org/1999/xlink" x="0px" y="0px" width="3.6px" height="8.1px" viewBox="0 0 3.6 8.1" style="enable-background:new 0 0 3.6 8.1;" xml:space="preserve">
	<path d="M0.2,2.1h0.9V0.4h1.3v1.7h1.1V3H2.3v3c0,0.1,0,0.2,0,0.3c0,0.1,0,0.2,0.1,0.2c0,0.1,0.1,0.1,0.2,0.2c0.1,0,0.2,0,0.3,0h0.3
	h0.3v1H3.1c-0.1,0-0.3,0-0.4,0c-0.3,0-0.5,0-0.8,0C1.7,7.6,1.5,7.5,1.4,7.4C1.3,7.2,1.2,7.1,1.2,6.9c0-0.2-0.1-0.4-0.1-0.6V3H0.2
	V2.1z"/>
</svg>
